<?xml version="1.0" encoding="UTF-8" standalone="no"?>
<!DOCTYPE svg PUBLIC "-//W3C//DTD SVG 1.1//EN"
        "http://www.w3.org/Graphics/SVG/1.1/DTD/svg11.dtd">
<!-- Generated by graphviz version 2.38.0 (20140413.2041)
 -->
<!-- Title: g Pages: 1 -->
<svg width="2074pt" height="1105pt"
     viewBox="0.00 0.00 2074.00 1105.00" xmlns="http://www.w3.org/2000/svg">
    <g id="graph0" class="graph" transform="scale(1 1) rotate(0) translate(4 1101)">
        <title>g</title>
        <polygon fill="white" stroke="none" points="-4,4 -4,-1101 2070,-1101 2070,4 -4,4"/>
        <g id="clust1" class="cluster">
            <title>cluster_1021169161</title>
            <polygon fill="#ececec" stroke="black" points="8,-8 8,-1089 2019,-1089 2019,-8 8,-8"/>
            <text text-anchor="middle" x="48.5" y="-1073.8" font-family="Times,serif" font-size="14.00">maxi_bauer
            </text>
        </g>
        <g id="clust2" class="cluster">
            <title>cluster_539379302</title>
            <polygon fill="#d8d8d8" stroke="black" points="1466,-16 1466,-332 1754,-332 1754,-16 1466,-16"/>
            <text text-anchor="middle" x="1491" y="-316.8" font-family="Times,serif" font-size="14.00">player</text>
        </g>
        <g id="clust3" class="cluster">
            <title>cluster_592957671</title>
            <polygon fill="#d8d8d8" stroke="black" points="306,-485.5 306,-641.5 592,-641.5 592,-485.5 306,-485.5"/>
            <text text-anchor="middle" x="340" y="-626.3" font-family="Times,serif" font-size="14.00">rendering</text>
        </g>
        <g id="clust4" class="cluster">
            <title>cluster_688177471</title>
            <polygon fill="#d8d8d8" stroke="black" points="600,-153 600,-722 1458,-722 1458,-153 600,-153"/>
            <text text-anchor="middle" x="623.5" y="-706.8" font-family="Times,serif" font-size="14.00">board</text>
        </g>
        <g id="clust5" class="cluster">
            <title>cluster_87485912</title>
            <polygon fill="#d8d8d8" stroke="black" points="16,-16 16,-618.5 298,-618.5 298,-16 16,-16"/>
            <text text-anchor="middle" x="47.5" y="-603.3" font-family="Times,serif" font-size="14.00">statistics</text>
        </g>
        <g id="clust6" class="cluster">
            <title>cluster_984851558</title>
            <polygon fill="#d8d8d8" stroke="black" points="757,-741 757,-1058 1177,-1058 1177,-741 757,-741"/>
            <text text-anchor="middle" x="792.5" y="-1042.8" font-family="Times,serif" font-size="14.00">command</text>
        </g>
        <!-- Main842708374 -->
        <g id="node1" class="node">
            <title>Main842708374</title>
            <polygon fill="#ffffff" stroke="none" points="1943,-923.5 1455,-923.5 1455,-852.5 1943,-852.5 1943,-923.5"/>
            <text text-anchor="start" x="1460" y="-906.8" font-family="Times,serif" font-size="14.00">(C)Main</text>
            <text text-anchor="start" x="1460" y="-883.8" font-family="Times,serif" font-size="14.00">&#45;
                getRandomPlayerThatDidntWin(players: List&lt;Player&gt;, currentPlayer: Player): Player
            </text>
            <text text-anchor="start" x="1460" y="-860.8" font-family="Times,serif" font-size="14.00">+ main(args:
                String[])
            </text>
            <polygon fill="black" stroke="black" points="1455,-899 1455,-899 1943,-899 1943,-899 1455,-899"/>
            <polygon fill="none" stroke="black" points="1455,-852.5 1455,-923.5 1943,-923.5 1943,-852.5 1455,-852.5"/>
        </g>
        <!-- CommandLinePlayer298661433 -->
        <g id="node2" class="node">
            <title>CommandLinePlayer298661433</title>
            <polygon fill="#ffffff" stroke="none" points="1746,-301 1474,-301 1474,-207 1746,-207 1746,-301"/>
            <text text-anchor="start" x="1479" y="-284.8" font-family="Times,serif" font-size="14.00">
                (C)CommandLinePlayer
            </text>
            <text text-anchor="start" x="1479" y="-261.8" font-family="Times,serif" font-size="14.00">&#45; &#160;&#160;commandLineParser:
                CommandParser [0..1]
            </text>
            <text text-anchor="start" x="1479" y="-238.8" font-family="Times,serif" font-size="14.00"># &#160;&#160;playerSymbol:
                PlayerSymbol [0..1]
            </text>
            <text text-anchor="start" x="1479" y="-215.8" font-family="Times,serif" font-size="14.00"># &#160;&#160;scanner:
                Scanner [0..1]
            </text>
            <polygon fill="black" stroke="black" points="1474,-277 1474,-277 1746,-277 1746,-277 1474,-277"/>
            <polygon fill="none" stroke="black" points="1474,-207 1474,-301 1746,-301 1746,-207 1474,-207"/>
        </g>
        <!-- Main842708374&#45;&gt;CommandLinePlayer298661433 -->
        <g id="edge13" class="edge">
            <title>Main842708374&#45;&gt;CommandLinePlayer298661433</title>
            <path fill="none" stroke="black"
                  d="M1698,-852.346C1694.65,-735.759 1684,-365 1684,-365 1684,-365 1661.23,-331.155 1640.95,-301.013"/>
        </g>
        <!-- PlayerSymbol298661433 -->
        <g id="node3" class="node">
            <title>PlayerSymbol298661433</title>
            <polygon fill="#ffffff" stroke="none" points="1668.5,-95 1551.5,-95 1551.5,-24 1668.5,-24 1668.5,-95"/>
            <text text-anchor="start" x="1557" y="-78.3" font-family="Times,serif" font-size="14.00">(C)PlayerSymbol
            </text>
            <text text-anchor="start" x="1557" y="-55.3" font-family="Times,serif" font-size="14.00">&#45; &#160;&#160;symbol:
                char [1]
            </text>
            <text text-anchor="start" x="1557" y="-32.3" font-family="Times,serif" font-size="14.00">+ symbol(): char
            </text>
            <polygon fill="black" stroke="black" points="1552,-70.5 1552,-70.5 1669,-70.5 1669,-70.5 1552,-70.5"/>
            <polygon fill="black" stroke="black" points="1552,-47.5 1552,-47.5 1669,-47.5 1669,-47.5 1552,-47.5"/>
            <polygon fill="none" stroke="black" points="1551.5,-24 1551.5,-95 1668.5,-95 1668.5,-24 1551.5,-24"/>
        </g>
        <!-- Main842708374&#45;&gt;PlayerSymbol298661433 -->
        <g id="edge15" class="edge">
            <title>Main842708374&#45;&gt;PlayerSymbol298661433</title>
            <path fill="none" stroke="black"
                  d="M1716.24,-852.399C1775.61,-733.215 1968,-347 1968,-347 1968,-347 1968,-153 1968,-153 1968,-153 1782.44,-105.056 1678.51,-78.2016"/>
            <polygon fill="black" stroke="black"
                     points="1679.27,-74.7839 1668.72,-75.6709 1677.52,-81.5613 1679.27,-74.7839"/>
            <text text-anchor="middle" x="2012.5" y="-376.3" font-family="Times,serif" font-size="14.00">main() &#45;&gt;
                symbol()
            </text>
        </g>
        <!-- CommandLineRenderer1962306612 -->
        <g id="node4" class="node">
            <title>CommandLineRenderer1962306612</title>
            <polygon fill="#ffffff" stroke="none"
                     points="583.5,-610.5 314.5,-610.5 314.5,-493.5 583.5,-493.5 583.5,-610.5"/>
            <text text-anchor="start" x="320" y="-593.8" font-family="Times,serif" font-size="14.00">
                (C)CommandLineRenderer
            </text>
            <text text-anchor="start" x="320" y="-570.8" font-family="Times,serif" font-size="14.00">&#45;
                clearConsole()
            </text>
            <text text-anchor="start" x="320" y="-547.8" font-family="Times,serif" font-size="14.00">+ message(message:
                String)
            </text>
            <text text-anchor="start" x="320" y="-524.8" font-family="Times,serif" font-size="14.00">+
                renderBoard(gamePositions: GamePositions)
            </text>
            <text text-anchor="start" x="320" y="-501.8" font-family="Times,serif" font-size="14.00">+
                renderStatistics(statistics: GameStatistics)
            </text>
            <polygon fill="black" stroke="black" points="315,-586 315,-586 584,-586 584,-586 315,-586"/>
            <polygon fill="none" stroke="black"
                     points="314.5,-493.5 314.5,-610.5 583.5,-610.5 583.5,-493.5 314.5,-493.5"/>
        </g>
        <!-- Main842708374&#45;&gt;CommandLineRenderer1962306612 -->
        <g id="edge14" class="edge">
            <title>Main842708374&#45;&gt;CommandLineRenderer1962306612</title>
            <path fill="none" stroke="black"
                  d="M1576.57,-852.493C1423.41,-809.323 1181,-741 1181,-741 1181,-741 596,-722 596,-722 596,-722 541.763,-659.646 499.178,-610.688"/>
        </g>
        <!-- CommandLinePlayer298661433&#45;&gt;PlayerSymbol298661433 -->
        <g id="edge3" class="edge">
            <title>CommandLinePlayer298661433&#45;&gt;PlayerSymbol298661433</title>
            <path fill="none" stroke="black" d="M1610,-206.891C1610,-176.147 1610,-135.932 1610,-105.432"/>
            <polygon fill="black" stroke="black" points="1613.5,-105.081 1610,-95.081 1606.5,-105.081 1613.5,-105.081"/>
            <text text-anchor="middle" x="1648.5" y="-131.8" font-family="Times,serif" font-size="14.00">playerSymbol
            </text>
            <text text-anchor="middle" x="1648.5" y="-116.8" font-family="Times,serif" font-size="14.00">[0..1]</text>
        </g>
        <!-- CommandLineCommandParser2112532211 -->
        <g id="node12" class="node">
            <title>CommandLineCommandParser2112532211</title>
            <polygon fill="#ffffff" stroke="none" points="1169,-1027 765,-1027 765,-749 1169,-749 1169,-1027"/>
            <text text-anchor="start" x="770" y="-1010.8" font-family="Times,serif" font-size="14.00">
                (C)CommandLineCommandParser
            </text>
            <text text-anchor="start" x="770" y="-987.8" font-family="Times,serif" font-size="14.00">&#45; &#160;&#160;renderer:
                Renderer [0..1]
            </text>
            <text text-anchor="start" x="770" y="-964.8" font-family="Times,serif" font-size="14.00"># &#160;&#160;scanner:
                Scanner [0..1]
            </text>
            <text text-anchor="start" x="770" y="-941.8" font-family="Times,serif" font-size="14.00">&#45; &#160;&#160;statisticsHandler:
                StatisticsHandler [0..1]
            </text>
            <text text-anchor="start" x="770" y="-918.8" font-family="Times,serif" font-size="14.00">&#45; endGame()
            </text>
            <text text-anchor="start" x="770" y="-895.8" font-family="Times,serif" font-size="14.00">#
                extractGameMove(gameMoveString: String): Optional&lt;GameMove&gt;
            </text>
            <text text-anchor="start" x="770" y="-872.8" font-family="Times,serif" font-size="14.00">#
                getCommand(commandString: String): GameCommand
            </text>
            <text text-anchor="start" x="770" y="-849.8" font-family="Times,serif" font-size="14.00">#
                isGameEnd(commandString: String): boolean
            </text>
            <text text-anchor="start" x="770" y="-826.8" font-family="Times,serif" font-size="14.00">#
                isGameMove(commandString: String): boolean
            </text>
            <text text-anchor="start" x="770" y="-803.8" font-family="Times,serif" font-size="14.00">#
                isGameRestart(commandString: String): boolean
            </text>
            <text text-anchor="start" x="770" y="-780.8" font-family="Times,serif" font-size="14.00">#
                isGetStatistics(commandString: String): boolean
            </text>
            <text text-anchor="start" x="770" y="-757.8" font-family="Times,serif" font-size="14.00">#
                readStringFromCommandLine(): String
            </text>
            <polygon fill="black" stroke="black" points="765,-1003 765,-1003 1169,-1003 1169,-1003 765,-1003"/>
            <polygon fill="black" stroke="black" points="765,-934 765,-934 1169,-934 1169,-934 765,-934"/>
            <polygon fill="none" stroke="black" points="765,-749 765,-1027 1169,-1027 1169,-749 765,-749"/>
        </g>
        <!-- CommandLinePlayer298661433&#45;&gt;CommandLineCommandParser2112532211 -->
        <g id="edge2" class="edge">
            <title>CommandLinePlayer298661433&#45;&gt;CommandLineCommandParser2112532211</title>
            <path fill="none" stroke="black"
                  d="M1595.4,-301.056C1558.07,-418.873 1462,-722 1462,-722 1462,-722 1173,-741 1173,-741 1173,-741 1168.93,-743.887 1161.92,-748.85"/>
        </g>
        <!-- GamePositions966625422 -->
        <g id="node7" class="node">
            <title>GamePositions966625422</title>
            <polygon fill="#ffffff" stroke="none" points="1111.5,-347 608.5,-347 608.5,-161 1111.5,-161 1111.5,-347"/>
            <text text-anchor="start" x="614" y="-330.8" font-family="Times,serif" font-size="14.00">(C)GamePositions
            </text>
            <text text-anchor="start" x="614" y="-307.8" font-family="Times,serif" font-size="14.00">&#45; &#160;&#160;positions:
                PlayerSymbol[][] [0..*]
            </text>
            <text text-anchor="start" x="614" y="-284.8" font-family="Times,serif" font-size="14.00">&#45;
                isCellAvailable(move: GameMove): boolean
            </text>
            <text text-anchor="start" x="614" y="-261.8" font-family="Times,serif" font-size="14.00">+ makeMove(move:
                GameMove, playerSymbol: PlayerSymbol): Optional&lt;GameMove&gt;
            </text>
            <text text-anchor="start" x="614" y="-238.8" font-family="Times,serif" font-size="14.00">+
                newPositions(gamePositionsSize: int): GamePositions
            </text>
            <text text-anchor="start" x="614" y="-215.8" font-family="Times,serif" font-size="14.00">+ positions():
                PlayerSymbol[][]
            </text>
            <text text-anchor="start" x="614" y="-192.8" font-family="Times,serif" font-size="14.00">+
                validateMove(move: GameMove): Optional&lt;GameMove&gt;
            </text>
            <text text-anchor="start" x="614" y="-169.8" font-family="Times,serif" font-size="14.00">&#45;
                validateMoveBounds(value: int): boolean
            </text>
            <polygon fill="black" stroke="black" points="609,-323 609,-323 1112,-323 1112,-323 609,-323"/>
            <polygon fill="black" stroke="black" points="609,-300 609,-300 1112,-300 1112,-300 609,-300"/>
            <polygon fill="none" stroke="black" points="608.5,-161 608.5,-347 1111.5,-347 1111.5,-161 608.5,-161"/>
        </g>
        <!-- CommandLineRenderer1962306612&#45;&gt;GamePositions966625422 -->
        <g id="edge4" class="edge">
            <title>CommandLineRenderer1962306612&#45;&gt;GamePositions966625422</title>
            <path fill="none" stroke="black"
                  d="M510.489,-493.275C550.771,-455.46 596,-413 596,-413 596,-413 642.963,-384.893 697.274,-352.389"/>
            <polygon fill="black" stroke="black"
                     points="699.265,-355.277 706.048,-347.138 695.67,-349.27 699.265,-355.277"/>
            <text text-anchor="middle" x="752.5" y="-376.3" font-family="Times,serif" font-size="14.00">renderBoard()
                &#45;&gt; positions()
            </text>
        </g>
        <!-- GameStatistics587341701 -->
        <g id="node9" class="node">
            <title>GameStatistics587341701</title>
            <polygon fill="#ffffff" stroke="none" points="255,-289.5 67,-289.5 67,-218.5 255,-218.5 255,-289.5"/>
            <text text-anchor="start" x="72" y="-272.8" font-family="Times,serif" font-size="14.00">(C)GameStatistics
            </text>
            <text text-anchor="start" x="72" y="-249.8" font-family="Times,serif" font-size="14.00">&#45; &#160;&#160;wins:
                List&lt;GameWin&gt; [0..*]
            </text>
            <text text-anchor="start" x="72" y="-226.8" font-family="Times,serif" font-size="14.00">+ wins(): List&lt;GameWin&gt;</text>
            <polygon fill="black" stroke="black" points="67,-265 67,-265 255,-265 255,-265 67,-265"/>
            <polygon fill="black" stroke="black" points="67,-242 67,-242 255,-242 255,-242 67,-242"/>
            <polygon fill="none" stroke="black" points="67,-218.5 67,-289.5 255,-289.5 255,-218.5 67,-218.5"/>
        </g>
        <!-- CommandLineRenderer1962306612&#45;&gt;GameStatistics587341701 -->
        <g id="edge5" class="edge">
            <title>CommandLineRenderer1962306612&#45;&gt;GameStatistics587341701</title>
            <path fill="none" stroke="black" d="M392.787,-493.226C336.618,-435.497 251.633,-348.151 201.682,-296.812"/>
            <polygon fill="black" stroke="black"
                     points="204.057,-294.234 194.574,-289.507 199.039,-299.115 204.057,-294.234"/>
            <text text-anchor="middle" x="371" y="-376.3" font-family="Times,serif" font-size="14.00">renderStatistics()
                &#45;&gt; wins()
            </text>
        </g>
        <!-- BoringGameboardWinChecker966625422 -->
        <g id="node5" class="node">
            <title>BoringGameboardWinChecker966625422</title>
            <polygon fill="#ffffff" stroke="none" points="1450,-278 1130,-278 1130,-230 1450,-230 1450,-278"/>
            <text text-anchor="start" x="1135" y="-261.8" font-family="Times,serif" font-size="14.00">
                (C)BoringGameboardWinChecker
            </text>
            <text text-anchor="start" x="1135" y="-238.8" font-family="Times,serif" font-size="14.00">+
                isGameWon(gamePositions: GamePositions): boolean
            </text>
            <polygon fill="black" stroke="black" points="1130,-254 1130,-254 1450,-254 1450,-254 1130,-254"/>
            <polygon fill="none" stroke="black" points="1130,-230 1130,-278 1450,-278 1450,-230 1130,-230"/>
        </g>
        <!-- GameMove966625422 -->
        <g id="node6" class="node">
            <title>GameMove966625422</title>
            <polygon fill="#ffffff" stroke="none"
                     points="1449.5,-610.5 1340.5,-610.5 1340.5,-493.5 1449.5,-493.5 1449.5,-610.5"/>
            <text text-anchor="start" x="1346" y="-593.8" font-family="Times,serif" font-size="14.00">(C)GameMove</text>
            <text text-anchor="start" x="1346" y="-570.8" font-family="Times,serif" font-size="14.00">&#45; &#160;&#160;column:
                int [1]
            </text>
            <text text-anchor="start" x="1346" y="-547.8" font-family="Times,serif" font-size="14.00">&#45; &#160;&#160;row:
                int [1]
            </text>
            <text text-anchor="start" x="1346" y="-524.8" font-family="Times,serif" font-size="14.00">+ column(): int
            </text>
            <text text-anchor="start" x="1346" y="-501.8" font-family="Times,serif" font-size="14.00">+ row(): int
            </text>
            <polygon fill="black" stroke="black" points="1341,-586 1341,-586 1450,-586 1450,-586 1341,-586"/>
            <polygon fill="black" stroke="black" points="1341,-540 1341,-540 1450,-540 1450,-540 1341,-540"/>
            <polygon fill="none" stroke="black"
                     points="1340.5,-493.5 1340.5,-610.5 1449.5,-610.5 1449.5,-493.5 1340.5,-493.5"/>
        </g>
        <!-- GamePositions966625422&#45;&gt;PlayerSymbol298661433 -->
        <g id="edge6" class="edge">
            <title>GamePositions966625422&#45;&gt;PlayerSymbol298661433</title>
            <path fill="none" stroke="black"
                  d="M1100.52,-160.847C1113.29,-155.954 1121,-153 1121,-153 1121,-153 1405.92,-99.1046 1540.79,-73.5924"/>
            <polygon fill="black" stroke="black"
                     points="1541.84,-76.9554 1551.02,-71.6577 1540.54,-70.0774 1541.84,-76.9554"/>
            <text text-anchor="middle" x="1346.5" y="-131.8" font-family="Times,serif" font-size="14.00">positions
            </text>
            <text text-anchor="middle" x="1346.5" y="-116.8" font-family="Times,serif" font-size="14.00">[0..*]</text>
        </g>
        <!-- Gameboard966625422 -->
        <g id="node8" class="node">
            <title>Gameboard966625422</title>
            <polygon fill="#ffffff" stroke="none" points="1322.5,-691 1007.5,-691 1007.5,-413 1322.5,-413 1322.5,-691"/>
            <text text-anchor="start" x="1013" y="-674.8" font-family="Times,serif" font-size="14.00">(C)Gameboard
            </text>
            <text text-anchor="start" x="1013" y="-651.8" font-family="Times,serif" font-size="14.00">&#45; &#160;&#160;gameState:
                GameState [0..1]
            </text>
            <text text-anchor="start" x="1013" y="-628.8" font-family="Times,serif" font-size="14.00">&#45; &#160;&#160;positions:
                GamePositions [0..1]
            </text>
            <text text-anchor="start" x="1013" y="-605.8" font-family="Times,serif" font-size="14.00">&#45; &#160;&#160;renderer:
                Renderer [0..1]
            </text>
            <text text-anchor="start" x="1013" y="-582.8" font-family="Times,serif" font-size="14.00">&#45; &#160;&#160;statisticsHandler:
                StatisticsHandler [0..1]
            </text>
            <text text-anchor="start" x="1013" y="-559.8" font-family="Times,serif" font-size="14.00">&#45; &#160;&#160;winChecker:
                GameboardWinChecker [0..1]
            </text>
            <text text-anchor="start" x="1013" y="-536.8" font-family="Times,serif" font-size="14.00">+ drawBoard()
            </text>
            <text text-anchor="start" x="1013" y="-513.8" font-family="Times,serif" font-size="14.00">&#45;
                isDraw(positions: GamePositions): boolean
            </text>
            <text text-anchor="start" x="1013" y="-490.8" font-family="Times,serif" font-size="14.00">+ makeMove(player:
                Player)
            </text>
            <text text-anchor="start" x="1013" y="-467.8" font-family="Times,serif" font-size="14.00">+ resetGame()
            </text>
            <text text-anchor="start" x="1013" y="-444.8" font-family="Times,serif" font-size="14.00">&#45;
                resetGame(positions: GamePositions): GamePositions
            </text>
            <text text-anchor="start" x="1013" y="-421.8" font-family="Times,serif" font-size="14.00">&#45;
                validateAndMakeMove(player: Player)
            </text>
            <polygon fill="black" stroke="black" points="1008,-667 1008,-667 1323,-667 1323,-667 1008,-667"/>
            <polygon fill="black" stroke="black" points="1008,-552 1008,-552 1323,-552 1323,-552 1008,-552"/>
            <polygon fill="none" stroke="black" points="1007.5,-413 1007.5,-691 1322.5,-691 1322.5,-413 1007.5,-413"/>
        </g>
        <!-- Gameboard966625422&#45;&gt;PlayerSymbol298661433 -->
        <g id="edge11" class="edge">
            <title>Gameboard966625422&#45;&gt;PlayerSymbol298661433</title>
            <path fill="none" stroke="black"
                  d="M1322.54,-420.033C1327.9,-415.579 1331,-413 1331,-413 1331,-413 1755,-347 1755,-347 1755,-347 1755,-153 1755,-153 1755,-153 1712.26,-125.734 1673.19,-100.809"/>
            <polygon fill="black" stroke="black"
                     points="1674.72,-97.6342 1664.41,-95.2068 1670.95,-103.536 1674.72,-97.6342"/>
            <text text-anchor="middle" x="1859.5" y="-250.3" font-family="Times,serif" font-size="14.00">
                validateAndMakeMove() &#45;&gt; symbol()
            </text>
        </g>
        <!-- Gameboard966625422&#45;&gt;BoringGameboardWinChecker966625422 -->
        <g id="edge9" class="edge">
            <title>Gameboard966625422&#45;&gt;BoringGameboardWinChecker966625422</title>
            <path fill="none" stroke="black" d="M1223.29,-412.966C1245.19,-361.119 1267.77,-307.633 1280.24,-278.115"/>
        </g>
        <!-- Gameboard966625422&#45;&gt;GamePositions966625422 -->
        <g id="edge10" class="edge">
            <title>Gameboard966625422&#45;&gt;GamePositions966625422</title>
            <path fill="none" stroke="black" d="M1022.77,-412.966C1002.39,-393.186 981.761,-373.168 962.354,-354.334"/>
            <polygon fill="black" stroke="black"
                     points="964.592,-351.629 954.979,-347.176 959.717,-356.652 964.592,-351.629"/>
            <text text-anchor="middle" x="1028.5" y="-383.8" font-family="Times,serif" font-size="14.00">positions
            </text>
            <text text-anchor="middle" x="1028.5" y="-368.8" font-family="Times,serif" font-size="14.00">[0..1]</text>
        </g>
        <!-- GameWin587341701 -->
        <g id="node10" class="node">
            <title>GameWin587341701</title>
            <polygon fill="#ffffff" stroke="none" points="290,-95 24,-95 24,-24 290,-24 290,-95"/>
            <text text-anchor="start" x="29" y="-78.3" font-family="Times,serif" font-size="14.00">(C)GameWin</text>
            <text text-anchor="start" x="29" y="-55.3" font-family="Times,serif" font-size="14.00">&#45; &#160;&#160;winningPlayerSymbol:
                PlayerSymbol [0..1]
            </text>
            <text text-anchor="start" x="29" y="-32.3" font-family="Times,serif" font-size="14.00">+
                winningPlayerSymbol(): PlayerSymbol
            </text>
            <polygon fill="black" stroke="black" points="24,-70.5 24,-70.5 290,-70.5 290,-70.5 24,-70.5"/>
            <polygon fill="black" stroke="black" points="24,-47.5 24,-47.5 290,-47.5 290,-47.5 24,-47.5"/>
            <polygon fill="none" stroke="black" points="24,-24 24,-95 290,-95 290,-24 24,-24"/>
        </g>
        <!-- GameStatistics587341701&#45;&gt;GameWin587341701 -->
        <g id="edge7" class="edge">
            <title>GameStatistics587341701&#45;&gt;GameWin587341701</title>
            <path fill="none" stroke="black" d="M160.276,-218.14C159.619,-186.523 158.647,-139.738 157.932,-105.346"/>
            <polygon fill="black" stroke="black"
                     points="161.426,-105.026 157.719,-95.101 154.428,-105.172 161.426,-105.026"/>
            <text text-anchor="middle" x="174.5" y="-131.8" font-family="Times,serif" font-size="14.00">wins</text>
            <text text-anchor="middle" x="174.5" y="-116.8" font-family="Times,serif" font-size="14.00">[0..*]</text>
        </g>
        <!-- GameWin587341701&#45;&gt;PlayerSymbol298661433 -->
        <g id="edge8" class="edge">
            <title>GameWin587341701&#45;&gt;PlayerSymbol298661433</title>
            <path fill="none" stroke="black" d="M290.119,-59.5C590.983,-59.5 1314.79,-59.5 1541.14,-59.5"/>
            <polygon fill="black" stroke="black"
                     points="1541.22,-63.0001 1551.22,-59.5 1541.22,-56.0001 1541.22,-63.0001"/>
            <text text-anchor="middle" x="920.75" y="-81.3" font-family="Times,serif" font-size="14.00">
                winningPlayerSymbol
            </text>
            <text text-anchor="middle" x="920.75" y="-66.3" font-family="Times,serif" font-size="14.00">[0..1]</text>
        </g>
        <!-- InMemoryStatistics587341701 -->
        <g id="node11" class="node">
            <title>InMemoryStatistics587341701</title>
            <polygon fill="#ffffff" stroke="none"
                     points="289.5,-587.5 32.5,-587.5 32.5,-516.5 289.5,-516.5 289.5,-587.5"/>
            <text text-anchor="start" x="38" y="-570.8" font-family="Times,serif" font-size="14.00">
                (C)InMemoryStatistics
            </text>
            <text text-anchor="start" x="38" y="-547.8" font-family="Times,serif" font-size="14.00">&#45; &#160;&#160;statistics:
                GameStatistics [0..1]
            </text>
            <text text-anchor="start" x="38" y="-524.8" font-family="Times,serif" font-size="14.00">+
                registerWin(playerSymbol: PlayerSymbol)
            </text>
            <polygon fill="black" stroke="black" points="33,-563 33,-563 290,-563 290,-563 33,-563"/>
            <polygon fill="black" stroke="black" points="33,-540 33,-540 290,-540 290,-540 33,-540"/>
            <polygon fill="none" stroke="black" points="32.5,-516.5 32.5,-587.5 289.5,-587.5 289.5,-516.5 32.5,-516.5"/>
        </g>
        <!-- InMemoryStatistics587341701&#45;&gt;GameStatistics587341701 -->
        <g id="edge12" class="edge">
            <title>InMemoryStatistics587341701&#45;&gt;GameStatistics587341701</title>
            <path fill="none" stroke="black" d="M161,-516.466C161,-462.804 161,-359.406 161,-299.98"/>
            <polygon fill="black" stroke="black" points="164.5,-299.772 161,-289.772 157.5,-299.772 164.5,-299.772"/>
            <text text-anchor="middle" x="184.5" y="-383.8" font-family="Times,serif" font-size="14.00">statistics
            </text>
            <text text-anchor="middle" x="184.5" y="-368.8" font-family="Times,serif" font-size="14.00">[0..1]</text>
        </g>
        <!-- CommandLineCommandParser2112532211&#45;&gt;InMemoryStatistics587341701 -->
        <g id="edge1" class="edge">
            <title>CommandLineCommandParser2112532211&#45;&gt;InMemoryStatistics587341701</title>
            <path fill="none" stroke="black"
                  d="M764.77,-836.823C569.123,-788.279 302,-722 302,-722 302,-722 231.125,-637.051 189.874,-587.607"/>
        </g>
    </g>
</svg>
